REM DIRINDEX 1\2\5,1\2\6,1\2\7,1\2\8,1\3\9,1\3\10,1\3\11,1\4\12,1\4\13,1\4\14,1\4\15,1\4\16
REM DIRNAME folder01,folder02,folder03,folder04,folder05,folder06,folder07,folder08,folder09,folder10,folder11,folder12,folder13,folder14,folder15,folder16
TITLE ""
FILE "1200_2_sec01_0201_0219.mp3" MP3
  TRACK 01 AUDIO
    TITLE "0:"
    INDEX 01 00:00:00
  TRACK 02 AUDIO
    TITLE "11:cjc034_00412"
    INDEX 01 00:00:15
  TRACK 03 AUDIO
    TITLE "0:"
    INDEX 01 00:01:52
  TRACK 04 AUDIO
    TITLE "11:cjc034_00413"
    INDEX 01 00:02:20
  TRACK 05 AUDIO
    TITLE "0:"
    INDEX 01 00:04:58
  TRACK 06 AUDIO
    TITLE "10:cjc034_00414"
    INDEX 01 00:05:61
  TRACK 07 AUDIO
    TITLE "0:"
    INDEX 01 00:07:43
  TRACK 08 AUDIO
    TITLE "9:cjc034_00415"
    INDEX 01 00:07:62
  TRACK 09 AUDIO
    TITLE "0:"
    INDEX 01 00:09:28
  TRACK 10 AUDIO
    TITLE "10:cjc034_00416"
    INDEX 01 00:10:23
  TRACK 11 AUDIO
    TITLE "0:"
    INDEX 01 00:12:20
  TRACK 12 AUDIO
    TITLE "9:cjc034_00417"
    INDEX 01 00:12:36
  TRACK 13 AUDIO
    TITLE "0:"
    INDEX 01 00:13:61
  TRACK 14 AUDIO
    TITLE "10:cjc034_00418"
    INDEX 01 00:14:58
  TRACK 15 AUDIO
    TITLE "0:"
    INDEX 01 00:18:29
  TRACK 16 AUDIO
    TITLE "9:cjc034_00419"
    INDEX 01 00:18:50
  TRACK 17 AUDIO
    TITLE "0:"
    INDEX 01 00:20:37
  TRACK 18 AUDIO
    TITLE "10:cjc034_00420"
    INDEX 01 00:21:35
  TRACK 19 AUDIO
    TITLE "0:"
    INDEX 01 00:23:40
  TRACK 20 AUDIO
    TITLE "9:cjc034_00421"
    INDEX 01 00:23:59
  TRACK 21 AUDIO
    TITLE "0:"
    INDEX 01 00:25:05
  TRACK 22 AUDIO
    TITLE "10:cjc034_00422"
    INDEX 01 00:26:05
  TRACK 23 AUDIO
    TITLE "0:"
    INDEX 01 00:27:47
  TRACK 24 AUDIO
    TITLE "9:cjc034_00423"
    INDEX 01 00:27:67
  TRACK 25 AUDIO
    TITLE "0:"
    INDEX 01 00:29:01
  TRACK 26 AUDIO
    TITLE "10:cjc034_00424"
    INDEX 01 00:29:74
  TRACK 27 AUDIO
    TITLE "0:"
    INDEX 01 00:31:49
  TRACK 28 AUDIO
    TITLE "9:cjc034_00425"
    INDEX 01 00:31:69
  TRACK 29 AUDIO
    TITLE "0:"
    INDEX 01 00:33:36
  TRACK 30 AUDIO
    TITLE "10:cjc034_00426"
    INDEX 01 00:34:32
  TRACK 31 AUDIO
    TITLE "0:"
    INDEX 01 00:35:29
  TRACK 32 AUDIO
    TITLE "9:cjc034_00427"
    INDEX 01 00:35:51
  TRACK 33 AUDIO
    TITLE "0:"
    INDEX 01 00:37:22
  TRACK 34 AUDIO
    TITLE "10:cjc034_00428"
    INDEX 01 00:38:16
  TRACK 35 AUDIO
    TITLE "0:"
    INDEX 01 00:39:68
  TRACK 36 AUDIO
    TITLE "9:cjc034_00429"
    INDEX 01 00:40:17
  TRACK 37 AUDIO
    TITLE "0:"
    INDEX 01 00:41:40
  TRACK 38 AUDIO
    TITLE "10:cjc034_00430"
    INDEX 01 00:42:35
  TRACK 39 AUDIO
    TITLE "0:"
    INDEX 01 00:43:74
  TRACK 40 AUDIO
    TITLE "9:cjc034_00431"
    INDEX 01 00:44:24
  TRACK 41 AUDIO
    TITLE "0:"
    INDEX 01 00:46:17
  TRACK 42 AUDIO
    TITLE "10:cjc034_00432"
    INDEX 01 00:47:13
  TRACK 43 AUDIO
    TITLE "0:"
    INDEX 01 00:48:67
  TRACK 44 AUDIO
    TITLE "9:cjc034_00433"
    INDEX 01 00:49:14
  TRACK 45 AUDIO
    TITLE "0:"
    INDEX 01 00:50:35
  TRACK 46 AUDIO
    TITLE "10:cjc034_00434"
    INDEX 01 00:51:32
  TRACK 47 AUDIO
    TITLE "0:"
    INDEX 01 00:55:14
  TRACK 48 AUDIO
    TITLE "9:cjc034_00435"
    INDEX 01 00:55:34
  TRACK 49 AUDIO
    TITLE "0:"
    INDEX 01 00:56:61
  TRACK 50 AUDIO
    TITLE "10:cjc034_00436"
    INDEX 01 00:57:50
  TRACK 51 AUDIO
    TITLE "0:"
    INDEX 01 00:59:16
  TRACK 52 AUDIO
    TITLE "9:cjc034_00437"
    INDEX 01 00:59:36
  TRACK 53 AUDIO
    TITLE "0:"
    INDEX 01 01:00:64
  TRACK 54 AUDIO
    TITLE "10:cjc034_00438"
    INDEX 01 01:01:62
  TRACK 55 AUDIO
    TITLE "0:"
    INDEX 01 01:03:16
  TRACK 56 AUDIO
    TITLE "9:cjc034_00439"
    INDEX 01 01:03:37
  TRACK 57 AUDIO
    TITLE "0:"
    INDEX 01 01:04:45
  TRACK 58 AUDIO
    TITLE "10:cjc034_00440"
    INDEX 01 01:05:42
  TRACK 59 AUDIO
    TITLE "0:"
    INDEX 01 01:07:43
  TRACK 60 AUDIO
    TITLE "9:cjc034_00441"
    INDEX 01 01:07:55
  TRACK 61 AUDIO
    TITLE "0:"
    INDEX 01 01:09:28
  TRACK 62 AUDIO
    TITLE "10:cjc034_00442"
    INDEX 01 01:10:30
  TRACK 63 AUDIO
    TITLE "0:"
    INDEX 01 01:11:64
  TRACK 64 AUDIO
    TITLE "9:cjc034_00443"
    INDEX 01 01:12:09
  TRACK 65 AUDIO
    TITLE "0:"
    INDEX 01 01:13:22
  TRACK 66 AUDIO
    TITLE "10:cjc034_00444"
    INDEX 01 01:14:25
  TRACK 67 AUDIO
    TITLE "0:"
    INDEX 01 01:15:72
  TRACK 68 AUDIO
    TITLE "9:cjc034_00445"
    INDEX 01 01:16:12
  TRACK 69 AUDIO
    TITLE "0:"
    INDEX 01 01:17:61
  TRACK 70 AUDIO
    TITLE "10:cjc034_00446"
    INDEX 01 01:18:58
  TRACK 71 AUDIO
    TITLE "0:"
    INDEX 01 01:22:01
  TRACK 72 AUDIO
    TITLE "9:cjc034_00447"
    INDEX 01 01:22:09
  TRACK 73 AUDIO
    TITLE "0:"
    INDEX 01 01:25:62
  TRACK 74 AUDIO
    TITLE "10:cjc034_00448"
    INDEX 01 01:26:56
  TRACK 75 AUDIO
    TITLE "0:"
    INDEX 01 01:29:48
  TRACK 76 AUDIO
    TITLE "9:cjc034_00449"
    INDEX 01 01:29:66
  TRACK 77 AUDIO
    TITLE "0:"
    INDEX 01 01:30:73
  TRACK 78 AUDIO
    TITLE "10:cjc034_00450"
    INDEX 01 01:31:71
  TRACK 79 AUDIO
    TITLE "0:"
    INDEX 01 01:33:34
  TRACK 80 AUDIO
    TITLE "9:cjc034_00451"
    INDEX 01 01:33:56
  TRACK 81 AUDIO
    TITLE "0:"
    INDEX 01 01:35:16
